<svg width="800" height="800" viewBox="0 0 800 800" fill="none" xmlns="http://www.w3.org/2000/svg">
<path d="M384.982 351.624L337.508 474.814H315.491L362.968 351.624H384.982Z" stroke="white" stroke-width="3.41969"/>
<path d="M442.508 338.71L395.033 461.899H373.016L420.493 338.71H442.508Z" stroke="#DD9E33" stroke-width="3.41969"/>
<path d="M162.036 429.711C168.976 429.711 173.827 426.209 176.59 419.205L186.614 423.06C184.43 428.394 181.249 432.345 177.072 434.916C172.896 437.486 167.884 438.771 162.036 438.771C153.169 438.771 146.325 436.265 141.506 431.253C136.687 426.241 134.277 419.237 134.277 410.241C134.277 401.181 136.59 394.241 141.217 389.422C145.908 384.538 152.687 382.096 161.554 382.096C168.044 382.096 173.313 383.414 177.361 386.048C181.41 388.618 184.237 392.41 185.843 397.422L175.723 400.217C174.888 397.454 173.185 395.269 170.614 393.663C168.108 391.992 165.153 391.157 161.747 391.157C156.542 391.157 152.59 392.795 149.892 396.072C147.193 399.285 145.843 404.008 145.843 410.241C145.843 416.538 147.225 421.357 149.988 424.699C152.815 428.04 156.831 429.711 162.036 429.711ZM194.132 438V382.964H205.602V438H194.132ZM241.091 391.831V438H229.621V391.831H211.789V382.964H258.922V391.831H241.091ZM292.154 415.446V438H280.684V415.446L261.021 382.964H273.069L286.274 406.289L299.672 382.964H311.72L292.154 415.446Z" fill="white"/>
<path d="M495.217 413.096C495.217 418.494 493.225 422.639 489.241 425.53C485.257 428.357 479.378 429.771 471.602 429.771C464.534 429.771 459.008 428.518 455.024 426.012C451.04 423.506 448.47 419.715 447.313 414.639L458.398 412.807C459.169 415.699 460.647 417.819 462.831 419.169C465.016 420.518 468.068 421.193 471.988 421.193C480.02 421.193 484.036 418.719 484.036 413.771C484.036 412.229 483.554 410.944 482.59 409.916C481.691 408.888 480.406 408.052 478.735 407.41C477.064 406.703 473.851 405.867 469.096 404.904C464.984 403.94 462.092 403.169 460.422 402.59C458.815 402.012 457.369 401.337 456.084 400.566C454.799 399.731 453.675 398.767 452.711 397.675C451.811 396.582 451.104 395.297 450.59 393.819C450.141 392.277 449.916 390.51 449.916 388.518C449.916 383.57 451.779 379.779 455.506 377.145C459.233 374.446 464.663 373.096 471.795 373.096C478.606 373.096 483.715 374.189 487.12 376.373C490.59 378.494 492.807 382.028 493.771 386.976L482.59 388.422C482.012 386.044 480.855 384.277 479.12 383.12C477.386 381.9 474.88 381.289 471.602 381.289C464.598 381.289 461.096 383.474 461.096 387.843C461.096 389.257 461.45 390.446 462.157 391.41C462.928 392.309 464.02 393.08 465.434 393.723C466.912 394.365 469.9 395.169 474.398 396.133C479.667 397.225 483.426 398.253 485.675 399.217C487.988 400.181 489.787 401.305 491.072 402.59C492.422 403.811 493.45 405.289 494.157 407.024C494.863 408.759 495.217 410.783 495.217 413.096ZM530.763 406.446V429H519.293V406.446L499.631 373.964H511.679L524.884 397.289L538.281 373.964H550.329L530.763 406.446ZM590.406 429L566.406 386.59C566.856 390.703 567.113 394.012 567.177 396.518V429H556.96V373.964H570.069L594.454 416.663C594.004 412.743 593.747 409.177 593.683 405.964V373.964H603.9V429H590.406ZM640.333 420.711C647.273 420.711 652.124 417.209 654.887 410.205L664.911 414.06C662.727 419.394 659.546 423.345 655.369 425.916C651.192 428.486 646.18 429.771 640.333 429.771C631.466 429.771 624.622 427.265 619.803 422.253C614.984 417.241 612.574 410.237 612.574 401.241C612.574 392.181 614.887 385.241 619.514 380.422C624.205 375.538 630.984 373.096 639.851 373.096C646.341 373.096 651.61 374.414 655.658 377.048C659.707 379.618 662.534 383.41 664.14 388.422L654.02 391.217C653.184 388.454 651.482 386.269 648.911 384.663C646.405 382.992 643.449 382.157 640.044 382.157C634.839 382.157 630.887 383.795 628.188 387.072C625.49 390.285 624.14 395.008 624.14 401.241C624.14 407.538 625.522 412.357 628.285 415.699C631.112 419.04 635.128 420.711 640.333 420.711Z" fill="#DD9E33"/>
</svg>
