<svg width="573" height="206" viewBox="0 0 573 206" fill="none" xmlns="http://www.w3.org/2000/svg">
<path d="M271.982 48.6241L224.508 171.814H202.491L249.968 48.6241H271.982Z" stroke="white" stroke-width="3.41969"/>
<path d="M329.508 35.71L282.033 158.899H260.016L307.493 35.71H329.508Z" stroke="#DD9E33" stroke-width="3.41969"/>
<path d="M49.0361 126.711C55.9759 126.711 60.8273 123.209 63.5904 116.205L73.6145 120.06C71.4297 125.394 68.249 129.345 64.0723 131.916C59.8956 134.486 54.8835 135.771 49.0361 135.771C40.1687 135.771 33.3253 133.265 28.506 128.253C23.6867 123.241 21.2771 116.237 21.2771 107.241C21.2771 98.1807 23.5904 91.241 28.2169 86.4217C32.9076 81.5382 39.6867 79.0964 48.5542 79.0964C55.0442 79.0964 60.3133 80.4137 64.3614 83.0482C68.4096 85.6185 71.2369 89.4096 72.8434 94.4217L62.7229 97.2169C61.8876 94.4538 60.1847 92.2691 57.6145 90.6627C55.1084 88.992 52.1526 88.1566 48.747 88.1566C43.5422 88.1566 39.5904 89.7952 36.8916 93.0723C34.1928 96.2851 32.8434 101.008 32.8434 107.241C32.8434 113.538 34.2249 118.357 36.988 121.699C39.8153 125.04 43.8313 126.711 49.0361 126.711ZM81.132 135V79.9639H92.6018V135H81.132ZM128.091 88.8313V135H116.621V88.8313H98.7893V79.9639H145.922V88.8313H128.091ZM179.154 112.446V135H167.684V112.446L148.021 79.9639H160.069L173.274 103.289L186.672 79.9639H198.72L179.154 112.446Z" fill="white"/>
<path d="M382.217 110.096C382.217 115.494 380.225 119.639 376.241 122.53C372.257 125.357 366.378 126.771 358.602 126.771C351.534 126.771 346.008 125.518 342.024 123.012C338.04 120.506 335.47 116.715 334.313 111.639L345.398 109.807C346.169 112.699 347.647 114.819 349.831 116.169C352.016 117.518 355.068 118.193 358.988 118.193C367.02 118.193 371.036 115.719 371.036 110.771C371.036 109.229 370.554 107.944 369.59 106.916C368.691 105.888 367.406 105.052 365.735 104.41C364.064 103.703 360.851 102.867 356.096 101.904C351.984 100.94 349.092 100.169 347.422 99.5904C345.815 99.012 344.369 98.3373 343.084 97.5663C341.799 96.7309 340.675 95.7671 339.711 94.6747C338.811 93.5823 338.104 92.2972 337.59 90.8193C337.141 89.2771 336.916 87.51 336.916 85.5181C336.916 80.5703 338.779 76.7791 342.506 74.1446C346.233 71.4458 351.663 70.0964 358.795 70.0964C365.606 70.0964 370.715 71.1888 374.12 73.3735C377.59 75.494 379.807 79.0281 380.771 83.9759L369.59 85.4217C369.012 83.0442 367.855 81.2771 366.12 80.1205C364.386 78.8996 361.88 78.2892 358.602 78.2892C351.598 78.2892 348.096 80.4739 348.096 84.8434C348.096 86.257 348.45 87.4458 349.157 88.4096C349.928 89.3092 351.02 90.0803 352.434 90.7229C353.912 91.3655 356.9 92.1687 361.398 93.1325C366.667 94.2249 370.426 95.253 372.675 96.2169C374.988 97.1807 376.787 98.3052 378.072 99.5904C379.422 100.811 380.45 102.289 381.157 104.024C381.863 105.759 382.217 107.783 382.217 110.096ZM417.763 103.446V126H406.293V103.446L386.631 70.9639H398.679L411.884 94.2892L425.281 70.9639H437.329L417.763 103.446ZM477.406 126L453.406 83.5904C453.856 87.7028 454.113 91.012 454.177 93.5181V126H443.96V70.9639H457.069L481.454 113.663C481.004 109.743 480.747 106.177 480.683 102.964V70.9639H490.9V126H477.406ZM527.333 117.711C534.273 117.711 539.124 114.209 541.887 107.205L551.911 111.06C549.727 116.394 546.546 120.345 542.369 122.916C538.192 125.486 533.18 126.771 527.333 126.771C518.466 126.771 511.622 124.265 506.803 119.253C501.984 114.241 499.574 107.237 499.574 98.241C499.574 89.1807 501.887 82.241 506.514 77.4217C511.205 72.5382 517.984 70.0964 526.851 70.0964C533.341 70.0964 538.61 71.4137 542.658 74.0482C546.707 76.6185 549.534 80.4096 551.14 85.4217L541.02 88.2169C540.184 85.4538 538.482 83.2691 535.911 81.6627C533.405 79.992 530.449 79.1566 527.044 79.1566C521.839 79.1566 517.887 80.7952 515.188 84.0723C512.49 87.2851 511.14 92.008 511.14 98.241C511.14 104.538 512.522 109.357 515.285 112.699C518.112 116.04 522.128 117.711 527.333 117.711Z" fill="#DD9E33"/>
</svg>
